# xmcd
#
# Track frame offsets:
#	150
#	14587
#	34049
#	49911
#	63223
#	83135
#	101247
#	118084
#	133796
#	150258
#	163570
#	176657
#	193419
#	210931
#	225443
#	238305
#	249667
#
# Disc length: 3501 seconds
#
# Revision: 1
# Processed by: cddbd v1.5.2PL0 Copyright (c) Steve Scherf et al.
# Submitted via: audiograbber 1.83.01
#
DISCID=e60dab11
DTITLE=Various Artist - Promo Only Country Radio February 2011
DYEAR=2011
DGENRE=Country
TTITLE0=Trace Adkins - Brown Chicken Brown Cow
TTITLE1=Brad Paisley - This Is Country
TTITLE2=The Band Perry - You Lie (Single Mix)
TTITLE3=Miranda Lambert - Heart Like Mine (Album Version)
TTITLE4=Kid Rock - Born Free
TTITLE5=Randy Montana - 1,000 Faces
TTITLE6=Rascal Flatts - I Won't Let Go
TTITLE7=Crossin' Dixon - Goodbye To Henry
TTITLE8=Steve Holy - Love Don't Run
TTITLE9=Ashton Shepherd - Look It Up
TTITLE10=Alabama - Are You Sure Hank Done It This Way
TTITLE11=Ricky Skaggs - Someday Soon
TTITLE12=Steel Magnolia - Last Night Again
TTITLE13=David Ball - Hot Water Pipe
TTITLE14=Rachel Timberlake - Honky Tonk Queen
TTITLE15=Aaron Russell - It Don't Get No Better Than This
TTITLE16=Guy Penrod - Pray About Everything
EXTD=
EXTT0=
EXTT1=
EXTT2=
EXTT3=
EXTT4=
EXTT5=
EXTT6=
EXTT7=
EXTT8=
EXTT9=
EXTT10=
EXTT11=
EXTT12=
EXTT13=
EXTT14=
EXTT15=
EXTT16=
PLAYORDER=
